<svg width="35" height="36" viewBox="0 0 35 36" fill="none" xmlns="http://www.w3.org/2000/svg">
<path d="M3.28125 3.78125C2.99117 3.78125 2.71297 3.89648 2.50785 4.1016C2.30273 4.30672 2.1875 4.58492 2.1875 4.875C2.1875 5.16508 2.30273 5.44328 2.50785 5.6484C2.71297 5.85352 2.99117 5.96875 3.28125 5.96875H5.3025C5.55042 5.96875 5.76625 6.135 5.83042 6.37417L9.56083 20.3625C8.38917 20.6678 7.35184 21.3531 6.61135 22.311C5.87085 23.269 5.469 24.4455 5.46875 25.6562C5.46875 26.26 5.95875 26.75 6.5625 26.75H29.5312C29.8213 26.75 30.0995 26.6348 30.3046 26.4296C30.5098 26.2245 30.625 25.9463 30.625 25.6562C30.625 25.3662 30.5098 25.088 30.3046 24.8829C30.0995 24.6777 29.8213 24.5625 29.5312 24.5625H7.84292C8.06915 23.9226 8.48826 23.3686 9.04248 22.9768C9.59671 22.5851 10.2588 22.3748 10.9375 22.375H27.2971C27.502 22.375 27.7028 22.3175 27.8765 22.2089C28.0503 22.1004 28.1901 21.9452 28.28 21.761C29.945 18.3443 31.3869 14.8233 32.5967 11.2202C32.6445 11.0777 32.6624 10.9268 32.6492 10.777C32.6361 10.6273 32.5923 10.4818 32.5204 10.3498C32.4486 10.2177 32.3503 10.1019 32.2317 10.0095C32.1131 9.91714 31.9767 9.85022 31.831 9.81292C24.1395 7.85168 16.2197 6.93104 8.28333 7.07562L7.945 5.81125C7.78977 5.229 7.44656 4.71433 6.9687 4.34723C6.49083 3.98013 5.90509 3.78116 5.3025 3.78125H3.28125ZM5.46875 30.0312C5.46875 29.4511 5.69922 28.8947 6.10945 28.4845C6.51969 28.0742 7.07609 27.8438 7.65625 27.8438C8.23641 27.8438 8.79281 28.0742 9.20305 28.4845C9.61328 28.8947 9.84375 29.4511 9.84375 30.0312C9.84375 30.6114 9.61328 31.1678 9.20305 31.578C8.79281 31.9883 8.23641 32.2188 7.65625 32.2188C7.07609 32.2188 6.51969 31.9883 6.10945 31.578C5.69922 31.1678 5.46875 30.6114 5.46875 30.0312ZM24.0625 30.0312C24.0625 29.4511 24.293 28.8947 24.7032 28.4845C25.1134 28.0742 25.6698 27.8438 26.25 27.8438C26.8302 27.8438 27.3866 28.0742 27.7968 28.4845C28.207 28.8947 28.4375 29.4511 28.4375 30.0312C28.4375 30.6114 28.207 31.1678 27.7968 31.578C27.3866 31.9883 26.8302 32.2188 26.25 32.2188C25.6698 32.2188 25.1134 31.9883 24.7032 31.578C24.293 31.1678 24.0625 30.6114 24.0625 30.0312Z" fill="black"/>
</svg>
