<svg width="18" height="18" viewBox="0 0 18 18" fill="none" xmlns="http://www.w3.org/2000/svg">
<path d="M16.2907 9.56403C16.3924 8.27251 16.1478 6.97724 15.582 5.81178C14.6455 6.70157 13.5385 7.39246 12.3277 7.84278C12.4251 9.03778 12.3712 10.2403 12.1672 11.4218C13.6406 11.0507 15.0366 10.4218 16.2907 9.56403ZM10.9755 11.6625C11.215 10.5173 11.2988 9.34494 11.2245 8.17728C10.5105 8.34753 9.76574 8.43753 8.99999 8.43753C8.23424 8.43753 7.48949 8.34753 6.77549 8.17728C6.70292 9.34494 6.78666 10.5171 7.02449 11.6625C8.33384 11.8632 9.66613 11.8632 10.9755 11.6625ZM7.32899 12.8393C8.43912 12.9706 9.56086 12.9706 10.671 12.8393C10.2895 14.0675 9.72621 15.2316 8.99999 16.293C8.27375 15.2316 7.7105 14.0675 7.32899 12.8393ZM5.83274 11.4225C5.62772 10.2407 5.57379 9.03751 5.67224 7.84203C4.4612 7.39182 3.35393 6.70093 2.41724 5.81103C1.8516 6.97678 1.6072 8.27232 1.70924 9.56403C2.96334 10.4218 4.35938 11.0515 5.83274 11.4225ZM16.017 11.064C15.6383 12.3472 14.9154 13.5022 13.9266 14.4035C12.9379 15.3049 11.7212 15.9181 10.4085 16.1768C11.0659 15.0715 11.5676 13.8807 11.8995 12.6383C13.3466 12.335 14.7364 11.8039 16.017 11.0648V11.064ZM1.98299 11.064C3.24449 11.7923 4.63049 12.33 6.10049 12.6383C6.43237 13.8807 6.9341 15.0715 7.59149 16.1768C6.2789 15.9182 5.06222 15.305 4.07349 14.4038C3.08477 13.5026 2.36178 12.3478 1.98299 11.0648V11.064ZM10.4085 1.82253C12.2668 2.18779 13.911 3.25941 14.9955 4.81203C14.195 5.62082 13.2394 6.25959 12.186 6.69003C11.9022 4.97089 11.2993 3.32001 10.4085 1.82253ZM8.99999 1.70703C10.0945 3.30611 10.8137 5.1318 11.1037 7.04778C10.431 7.22028 9.72599 7.31253 8.99999 7.31253C8.27399 7.31253 7.56899 7.22103 6.89624 7.04778C7.18625 5.1318 7.90541 3.30609 8.99999 1.70703ZM7.59149 1.82253C6.70066 3.32 6.09779 4.97089 5.81399 6.69003C4.76058 6.25961 3.80497 5.62083 3.00449 4.81203C4.08902 3.25963 5.73328 2.18753 7.59149 1.82253Z" fill="white"/>
</svg>
