<svg width="24" height="25" viewBox="0 0 24 25" fill="none" xmlns="http://www.w3.org/2000/svg">
<path fill-rule="evenodd" clip-rule="evenodd" d="M16.5 4.97801V5.20501C17.799 5.3238 19.0927 5.4946 20.378 5.71701C20.4751 5.73382 20.5678 5.76958 20.6511 5.82225C20.7343 5.87491 20.8063 5.94346 20.8631 6.02397C20.9198 6.10448 20.9601 6.19537 20.9817 6.29146C21.0033 6.38755 21.0058 6.48696 20.989 6.58401C20.9722 6.68106 20.9364 6.77384 20.8838 6.85707C20.8311 6.9403 20.7626 7.01233 20.682 7.06907C20.6015 7.12581 20.5106 7.16613 20.4146 7.18774C20.3185 7.20935 20.2191 7.21182 20.122 7.19501L19.913 7.16001L18.908 20.23C18.8501 20.9836 18.5098 21.6875 17.9553 22.2011C17.4008 22.7146 16.6728 23 15.917 23H8.08401C7.3282 23 6.60026 22.7146 6.04573 22.2011C5.4912 21.6875 5.15095 20.9836 5.09301 20.23L4.08701 7.16001L3.87801 7.19501C3.78096 7.21182 3.68155 7.20935 3.58546 7.18774C3.48937 7.16613 3.39847 7.12581 3.31796 7.06907C3.15537 6.95449 3.04495 6.78 3.01101 6.58401C2.97706 6.38801 3.02236 6.18656 3.13694 6.02397C3.25153 5.86137 3.42601 5.75096 3.62201 5.71701C4.90727 5.49433 6.20099 5.32353 7.50001 5.20501V4.97801C7.50001 3.41401 8.71301 2.07801 10.316 2.02701C11.4387 1.99108 12.5623 1.99108 13.685 2.02701C15.288 2.07801 16.5 3.41401 16.5 4.97801ZM10.364 3.52601C11.4547 3.49113 12.5463 3.49113 13.637 3.52601C14.39 3.55001 15 4.18401 15 4.97801V5.09101C13.0018 4.96966 10.9982 4.96966 9.00001 5.09101V4.97801C9.00001 4.18401 9.60901 3.55001 10.364 3.52601ZM10.009 9.47101C10.0052 9.37252 9.98203 9.27574 9.94082 9.1862C9.89961 9.09667 9.84117 9.01612 9.76883 8.94917C9.69649 8.88222 9.61168 8.83017 9.51923 8.796C9.42678 8.76183 9.3285 8.7462 9.23001 8.75001C9.13152 8.75382 9.03474 8.77699 8.9452 8.8182C8.85567 8.85941 8.77512 8.91785 8.70817 8.99019C8.64122 9.06252 8.58917 9.14734 8.555 9.23979C8.52083 9.33224 8.5052 9.43052 8.50901 9.52901L8.85601 18.529C8.8637 18.7278 8.95004 18.9154 9.09604 19.0505C9.16833 19.1174 9.25309 19.1694 9.34548 19.2036C9.43787 19.2377 9.53608 19.2533 9.63451 19.2495C9.73293 19.2457 9.82964 19.2225 9.91912 19.1814C10.0086 19.1402 10.0891 19.0818 10.156 19.0095C10.2229 18.9372 10.2749 18.8524 10.3091 18.76C10.3432 18.6676 10.3588 18.5694 10.355 18.471L10.009 9.47101ZM15.489 9.52901C15.4963 9.42863 15.4834 9.32779 15.4509 9.23252C15.4185 9.13725 15.3672 9.04948 15.3001 8.97445C15.233 8.89942 15.1515 8.83866 15.0604 8.7958C14.9694 8.75293 14.8706 8.72883 14.77 8.72494C14.6694 8.72104 14.5691 8.73743 14.475 8.77313C14.3809 8.80883 14.2949 8.8631 14.2222 8.93272C14.1496 9.00234 14.0916 9.08587 14.0519 9.17835C14.0122 9.27083 13.9915 9.37036 13.991 9.47101L13.644 18.471C13.6363 18.6699 13.708 18.8637 13.8432 19.0098C13.9784 19.1559 14.1661 19.2423 14.365 19.25C14.5639 19.2577 14.7577 19.1861 14.9038 19.0508C15.0499 18.9156 15.1363 18.7279 15.144 18.529L15.489 9.52901Z" fill="black"/>
</svg>
